<svg xmlns="http://www.w3.org/2000/svg" version="1.1" xmlns:xlink="http://www.w3.org/1999/xlink" xmlns:svgjs="http://svgjs.com/svgjs" width="1440" height="400" preserveAspectRatio="none" viewBox="0 0 1440 400"><g mask="url(&quot;#SvgjsMask1073&quot;)" fill="none"><rect width="1440" height="400" x="0" y="0" fill="rgba(254, 255, 255, 1)"></rect><path d="M 0,8 C 72,31 216,123 360,123 C 504,123 576,13.2 720,8 C 864,2.8 936,97.6 1080,97 C 1224,96.4 1368,23.4 1440,5L1440 400L0 400z" fill="rgba(53, 126, 212, 0.77)"></path><path d="M 0,153 C 57.6,171.2 172.8,248 288,244 C 403.2,240 460.8,138.4 576,133 C 691.2,127.6 748.8,207.8 864,217 C 979.2,226.2 1036.8,170.2 1152,179 C 1267.2,187.8 1382.4,244.6 1440,261L1440 400L0 400z" fill="#184a7e"></path><path d="M 0,358 C 72,352.4 216,325.8 360,330 C 504,334.2 576,382.2 720,379 C 864,375.8 936,315.4 1080,314 C 1224,312.6 1368,360.4 1440,372L1440 400L0 400z" fill="#2264ab"></path></g><defs><mask id="SvgjsMask1073"><rect width="1440" height="400" fill="#ffffff"></rect></mask></defs></svg>